<?xml version="1.0"?>


<svg xmlns:dc="http://purl.org/dc/elements/1.1/" xmlns:cc="http://creativecommons.org/ns#" xmlns:rdf="http://www.w3.org/1999/02/22-rdf-syntax-ns#" xmlns:svg="http://www.w3.org/2000/svg" xmlns="http://www.w3.org/2000/svg" xmlns:sodipodi="http://sodipodi.sourceforge.net/DTD/sodipodi-0.dtd" xmlns:inkscape="http://www.inkscape.org/namespaces/inkscape" version="1.1" id="svg3713" xml:space="preserve" width="259.004" height="259" viewBox="0 0 259.004 259"><metadata id="metadata3719"><RDF><Work><format>image/svg+xml</format><type></type><title></title></Work></RDF></metadata><defs id="defs3717"><clipPath clipPathUnits="userSpaceOnUse" id="clipPath3733"><path d="M 0,216.566 H 682 V 0 H 0 Z" id="path3731"></path></clipPath></defs><namedview pagecolor="#ffffff" bordercolor="#666666" borderopacity="1" objecttolerance="10" gridtolerance="10" guidetolerance="10" id="namedview3715" showgrid="false"></namedview><g id="g3721" transform="matrix(1.3333333,0,0,-1.3333333,-11.85052,275.75113)"></g><g transform="matrix(1.3333333,0,0,-1.3333333,-11.85052,275.75113)" id="g3999"><g id="g4175" transform="translate(239.97647,-150.25882)"><path d="M -44.598279,227.57967 H -223.33728 v 8.822 h 178.739001 z" style="fill:#1a1a1a;fill-opacity:1;fill-rule:nonzero;stroke:none" id="path3893"></path><g id="g3897" transform="translate(-133.96358,180.48397)"><path d="m 0,0 c -2.437,0 -4.438,1.951 -4.438,4.422 v 153.407 c 0,2.431 2.001,4.421 4.438,4.421 2.431,0 4.438,-1.99 4.438,-4.421 V 4.422 C 4.438,1.951 2.431,0 0,0" style="fill:#1a1a1a;fill-opacity:1;fill-rule:nonzero;stroke:none" id="path3895"></path></g><g id="g3901" transform="translate(-168.79368,189.02697)"><path d="m 0,0 c -1.13,0 -2.259,0.43 -3.146,1.289 -1.748,1.728 -1.748,4.518 0,6.239 L 31.7,42.389 c 1.708,1.713 4.552,1.713 6.262,0 1.705,-1.742 1.705,-4.532 0,-6.253 L 3.076,1.289 C 2.239,0.43 1.128,0 0,0" style="fill:#1a1a1a;fill-opacity:1;fill-rule:nonzero;stroke:none" id="path3899"></path></g><g id="g3905" transform="translate(-161.44898,197.84917)"><path d="m 0,0 c -1.134,0 -2.259,0.433 -3.149,1.317 l -9.128,9.154 c -1.742,1.724 -1.742,4.511 0,6.242 1.727,1.726 4.498,1.726 6.224,0 L 3.109,7.542 c 1.71,-1.724 1.71,-4.554 0,-6.225 C 2.253,0.433 1.125,0 0,0" style="fill:#1a1a1a;fill-opacity:1;fill-rule:nonzero;stroke:none" id="path3903"></path></g><g id="g3909" transform="translate(-106.48118,197.84917)"><path d="m 0,0 c -1.131,0 -2.259,0.433 -3.124,1.317 -1.713,1.671 -1.713,4.501 0,6.225 l 9.171,9.171 c 1.727,1.726 4.489,1.726 6.244,0 1.725,-1.731 1.725,-4.518 0,-6.242 L 3.132,1.317 C 2.253,0.433 1.128,0 0,0" style="fill:#1a1a1a;fill-opacity:1;fill-rule:nonzero;stroke:none" id="path3907"></path></g><g id="g3913" transform="translate(-121.85128,189.30727)"><path d="m 0,0 c -1.127,0 -2.256,0.432 -3.089,1.289 l -9.202,9.181 c -1.727,1.724 -1.727,4.481 0,6.239 1.728,1.725 4.518,1.725 6.239,0 L 3.133,7.544 C 4.88,5.823 4.88,3.03 3.133,1.289 2.26,0.432 1.131,0 0,0" style="fill:#1a1a1a;fill-opacity:1;fill-rule:nonzero;stroke:none" id="path3911"></path></g><g id="g3917" transform="translate(-146.07978,189.30727)"><path d="m 0,0 c -1.131,0 -2.259,0.432 -3.146,1.289 -1.713,1.741 -1.713,4.534 0,6.255 l 9.196,9.165 c 1.729,1.725 4.516,1.725 6.241,0 1.728,-1.758 1.728,-4.515 0,-6.239 L 3.107,1.289 C 2.256,0.432 1.128,0 0,0" style="fill:#1a1a1a;fill-opacity:1;fill-rule:nonzero;stroke:none" id="path3915"></path></g><g id="g3921" transform="translate(-135.57498,289.97027)"><path d="m 0,0 c -1.131,0 -2.265,0.404 -3.102,1.289 l -16.816,16.826 c -1.725,1.727 -1.725,4.52 0,6.244 1.704,1.722 4.521,1.722 6.244,0 L 3.138,7.531 C 4.868,5.81 4.868,3.017 3.138,1.289 2.275,0.404 1.136,0 0,0" style="fill:#1a1a1a;fill-opacity:1;fill-rule:nonzero;stroke:none" id="path3919"></path></g><g id="g3925" transform="translate(-132.34938,289.97027)"><path d="m 0,0 c -1.14,0 -2.275,0.404 -3.141,1.289 -1.721,1.728 -1.721,4.515 0,6.242 L 13.69,24.359 c 1.724,1.722 4.503,1.722 6.239,0 1.727,-1.724 1.727,-4.517 0,-6.244 L 3.104,1.289 C 2.267,0.404 1.133,0 0,0" style="fill:#1a1a1a;fill-opacity:1;fill-rule:nonzero;stroke:none" id="path3923"></path></g><g id="g3929" transform="translate(-135.07788,313.10317)"><path d="M 0,0 C -1.131,0 -2.236,0.415 -3.146,1.289 L -14.914,13.06 c -1.707,1.724 -1.707,4.517 0,6.245 1.719,1.72 4.551,1.72 6.262,0 L 3.107,7.527 C 4.823,5.807 4.823,3.014 3.107,1.289 2.256,0.415 1.128,0 0,0" style="fill:#1a1a1a;fill-opacity:1;fill-rule:nonzero;stroke:none" id="path3927"></path></g><g id="g3933" transform="translate(-132.85328,313.10317)"><path d="m 0,0 c -1.127,0 -2.253,0.415 -3.104,1.289 -1.712,1.725 -1.712,4.518 0,6.238 L 8.673,19.305 c 1.677,1.72 4.512,1.72 6.23,0 1.736,-1.728 1.736,-4.521 0,-6.245 L 3.149,1.289 C 2.242,0.415 1.131,0 0,0" style="fill:#1a1a1a;fill-opacity:1;fill-rule:nonzero;stroke:none" id="path3931"></path></g><g id="g3937" transform="translate(-133.46068,265.08657)"><path d="m 0,0 c -1.113,0 -2.244,0.432 -3.081,1.289 -1.722,1.721 -1.722,4.514 0,6.238 l 48.782,48.815 c 1.725,1.721 4.555,1.721 6.231,0 1.739,-1.728 1.739,-4.518 0,-6.245 L 3.163,1.289 C 2.253,0.432 1.131,0 0,0" style="fill:#1a1a1a;fill-opacity:1;fill-rule:nonzero;stroke:none" id="path3935"></path></g><g id="g3941" transform="translate(-92.983177,284.37067)"><path d="m 0,0 v 0 l -19.321,0.003 c -2.443,0 -4.422,1.99 -4.422,4.421 0,2.431 1.985,4.422 4.422,4.422 L 0,8.84 C 2.437,8.84 4.419,6.855 4.419,4.419 4.419,1.987 2.437,0 0,0" style="fill:#1a1a1a;fill-opacity:1;fill-rule:nonzero;stroke:none" id="path3939"></path></g><g id="g3945" transform="translate(-97.211677,302.58747)"><path d="m 0,0 c -2.437,0 -4.425,1.981 -4.425,4.415 v 13.521 c 0,2.439 1.98,4.378 4.416,4.378 2.414,0 4.421,-1.939 4.421,-4.37 L 4.415,4.424 C 4.415,1.981 2.405,0 0,0" style="fill:#1a1a1a;fill-opacity:1;fill-rule:nonzero;stroke:none" id="path3943"></path></g><g id="g3949" transform="translate(-82.415777,301.30917)"><path d="m 0,0 h -13.529 c -2.423,0 -4.394,1.968 -4.394,4.421 0,2.432 1.971,4.376 4.394,4.376 H 0 C 2.405,8.797 4.421,6.853 4.421,4.421 4.421,1.968 2.405,0 0,0" style="fill:#1a1a1a;fill-opacity:1;fill-rule:nonzero;stroke:none" id="path3947"></path></g><g id="g3953" transform="translate(-135.00168,265.08657)"><path d="m 0,0 c -1.122,0 -2.253,0.432 -3.095,1.289 l -48.802,48.808 c -1.731,1.727 -1.731,4.517 0,6.245 1.721,1.721 4.497,1.721 6.239,0 L 3.149,7.527 C 4.874,5.803 4.874,3.01 3.149,1.289 2.273,0.432 1.134,0 0,0" style="fill:#1a1a1a;fill-opacity:1;fill-rule:nonzero;stroke:none" id="path3951"></path></g><g id="g3957" transform="translate(-175.41378,284.37067)"><path d="m 0,0 c -2.462,0 -4.424,1.984 -4.424,4.419 0,2.436 1.962,4.421 4.424,4.421 l 19.333,0.006 c 2.411,0 4.382,-1.985 4.382,-4.422 0,-2.431 -1.965,-4.421 -4.382,-4.421 z" style="fill:#1a1a1a;fill-opacity:1;fill-rule:nonzero;stroke:none" id="path3955"></path></g><g id="g3961" transform="translate(-171.23018,302.58747)"><path d="M 0,0 H -0.006 C -2.423,0 -4.37,1.981 -4.37,4.424 v 13.52 c 0,2.431 1.956,4.37 4.373,4.37 h 0.006 c 2.45,0 4.432,-1.939 4.432,-4.378 L 4.433,4.415 C 4.433,1.981 2.459,0 0,0" style="fill:#1a1a1a;fill-opacity:1;fill-rule:nonzero;stroke:none" id="path3959"></path></g><g id="g3965" transform="translate(-172.48798,301.30917)"><path d="m 0,0 h -13.541 c -2.416,0 -4.367,1.968 -4.367,4.421 0,2.432 1.951,4.376 4.367,4.376 H 0 C 2.423,8.797 4.421,6.853 4.421,4.421 4.421,1.968 2.423,0 0,0" style="fill:#1a1a1a;fill-opacity:1;fill-rule:nonzero;stroke:none" id="path3963"></path></g><g id="g3969" transform="translate(-99.122777,189.02697)"><path d="m 0,0 c -1.128,0 -2.259,0.43 -3.112,1.289 l -34.859,34.847 c -1.704,1.721 -1.704,4.511 0,6.253 1.708,1.713 4.552,1.713 6.262,0 L 3.127,7.528 C 4.854,5.807 4.854,3.017 3.127,1.289 2.259,0.43 1.131,0 0,0" style="fill:#1a1a1a;fill-opacity:1;fill-rule:nonzero;stroke:none" id="path3967"></path></g><g id="g3973" transform="translate(-133.96358,348.26917)"><path d="m 0,0 c -48.667,0 -88.303,-39.641 -88.303,-88.322 0,-48.681 39.636,-88.317 88.303,-88.317 48.647,0 88.319,39.636 88.319,88.317 C 88.319,-39.641 48.647,0 0,0 m 0,-185.447 c -53.58,0 -97.125,43.564 -97.125,97.125 0,53.563 43.545,97.125 97.125,97.125 53.555,0 97.128,-43.562 97.128,-97.125 0,-53.561 -43.573,-97.125 -97.128,-97.125" style="fill:#1a1a1a;fill-opacity:1;fill-rule:nonzero;stroke:none" id="path3971"></path></g><g id="g3977" transform="translate(-48.671579,288.57187)"><path d="m 0,0 c -21.187,-23.062 -51.579,-37.552 -85.292,-37.552 -35.687,0 -67.627,16.214 -88.894,41.636 0.184,-3.564 -0.762,-7.211 -2.854,-10.077 22.796,-24.831 55.454,-40.385 91.748,-40.385 35.448,0 67.46,14.893 90.216,38.697 C 2.428,-5.733 0.785,-2.994 0,0" style="fill:#1a1a1a;fill-opacity:1;fill-rule:nonzero;stroke:none" id="path3975"></path></g><g id="g3981" transform="translate(-127.00948,227.57967)"><path d="m 0,0 19.796,-19.803 6.779,6.785 c 1.728,1.727 4.489,1.727 6.244,0 1.725,-1.73 1.725,-4.517 0,-6.242 l -6.784,-6.781 4.979,-4.983 c 1.726,-1.722 1.726,-4.512 0,-6.24 -0.868,-0.859 -1.996,-1.289 -3.127,-1.289 -1.128,0 -2.259,0.43 -3.113,1.289 l -27.29,27.313 v -10.601 c 0.59,-0.215 1.167,-0.519 1.622,-1.011 l 9.185,-9.166 c 1.747,-1.72 1.747,-4.513 0,-6.254 -0.873,-0.858 -2.002,-1.289 -3.133,-1.289 -1.127,0 -2.256,0.431 -3.089,1.289 l -4.585,4.55 v -10.241 c 0,-2.471 -2.002,-4.422 -4.438,-4.422 -2.437,0 -4.439,1.951 -4.439,4.422 v 10.241 l -4.57,-4.55 c -0.851,-0.858 -1.979,-1.289 -3.107,-1.289 -1.131,0 -2.259,0.431 -3.147,1.289 -1.713,1.741 -1.713,4.534 0,6.254 l 9.196,9.166 c 0.472,0.492 1.041,0.796 1.628,1.011 v 10.601 l -27.315,-27.313 c -0.837,-0.859 -1.948,-1.289 -3.076,-1.289 -1.13,0 -2.259,0.43 -3.146,1.289 -1.748,1.728 -1.748,4.518 0,6.24 l 4.978,4.983 -6.765,6.781 c -1.741,1.725 -1.741,4.512 0,6.242 1.728,1.727 4.498,1.727 6.225,0 l 6.779,-6.785 L -13.889,0 h -75.182 c 12.961,-32.721 44.842,-55.949 82.117,-55.949 37.261,0 69.17,23.228 82.114,55.949 z" style="fill:#f7931e;fill-opacity:1;fill-rule:nonzero;stroke:none" id="path3979"></path></g><g id="g3985" transform="translate(-138.40208,251.14417)"><path d="m 0,0 v 15.517 l -17.676,17.712 h -0.003 l -19.333,-0.002 c -2.462,0 -4.424,1.984 -4.424,4.419 0,2.436 1.962,4.42 4.424,4.42 l 10.468,0.006 -8.082,8.093 h -13.001 c -2.42,0 -4.367,1.968 -4.367,4.421 0,2.432 1.947,4.376 4.367,4.376 h 4.167 l -5.037,5.077 c -1.731,1.728 -1.731,4.518 0,6.245 1.722,1.722 4.497,1.722 6.239,0 l 5.06,-5.029 v 4.133 c 0,2.43 1.956,4.37 4.373,4.37 h 0.006 c 2.45,0 4.432,-1.94 4.432,-4.379 L -28.396,56.415 0,28 v 11.918 c -0.051,0.073 -0.209,0.073 -0.274,0.197 l -16.817,16.826 c -1.724,1.727 -1.724,4.52 0,6.245 1.704,1.721 4.521,1.721 6.244,0 L 0,52.305 v 11.121 l -11.59,11.593 c -1.707,1.724 -1.707,4.517 0,6.245 1.713,1.72 4.551,1.72 6.262,0 L 0,75.906 v 11.263 c 0,2.431 2.002,4.421 4.438,4.421 2.437,0 4.439,-1.99 4.439,-4.421 V 75.906 l 5.345,5.358 c 1.676,1.72 4.514,1.72 6.23,0 1.735,-1.728 1.735,-4.521 0,-6.245 L 8.877,63.426 V 52.303 l 10.866,10.883 c 1.724,1.721 4.503,1.721 6.238,0 1.728,-1.725 1.728,-4.518 0,-6.245 L 9.156,40.115 C 9.088,39.991 8.928,39.991 8.877,39.912 V 28.48 l 27.889,27.93 v 12.969 c 0,2.439 1.979,4.379 4.416,4.379 2.414,0 4.421,-1.94 4.421,-4.37 l 0.002,-4.133 5.038,5.029 c 1.724,1.722 4.554,1.722 6.23,0 1.739,-1.727 1.739,-4.517 0,-6.245 l -5.028,-5.077 h 4.141 c 2.406,0 4.421,-1.944 4.421,-4.376 0,-2.453 -2.015,-4.421 -4.421,-4.421 h -12.93 l -8.147,-8.093 10.51,-0.006 c 2.436,0 4.419,-1.984 4.419,-4.42 0,-2.432 -1.983,-4.419 -4.419,-4.419 L 26.098,33.229 H 26.092 L 8.877,15.997 V 0 C 40.125,1.173 68.237,14.796 88.404,36.051 76.898,71.448 43.596,97.125 4.438,97.125 -34.736,97.125 -68.031,71.445 -79.514,36.042 -59.381,14.796 -31.242,1.179 0,0" style="fill:#50d2ff;fill-opacity:1;fill-rule:nonzero;stroke:none" id="path3983"></path></g><g id="g3989" transform="translate(-222.26638,259.94687)"><path d="m 0,0 c 0,-8.149 1.14,-16.012 3.223,-23.545 h 80.641 v 5.911 C 52.006,-16.521 23.161,-3.406 1.705,17.374 0.58,11.726 0,5.937 0,0" style="fill:#b0ebff;fill-opacity:1;fill-rule:nonzero;stroke:none" id="path3987"></path></g><g id="g3993" transform="translate(-45.644279,259.94687)"><path d="M 0,0 C 0,5.947 -0.613,11.743 -1.738,17.374 -23.194,-3.387 -52.034,-16.525 -83.881,-17.64 v -5.905 H -3.257 C -1.14,-16.012 0,-8.149 0,0" style="fill:#b0ebff;fill-opacity:1;fill-rule:nonzero;stroke:none" id="path3991"></path></g></g></g></svg>